# xmcd
#
# Track frame offsets:
#	150
#	17929
#	36730
#	55841
#	76239
#	98533
#	118184
#	138747
#	157306
#	178857
#	196972
#	220073
#	236953
#	262083
#	282319
#
# Disc length: 4068 seconds
#
# Revision: 1
# Processed by: cddbd v1.5.2PL0 Copyright (c) Steve Scherf et al.
# Submitted via: EZCDAudioConverter 7.1.7.1
#
DISCID=eb0fe20f
DTITLE=苏云 - 新龙谣（第二卷）DTS-ES6.1
DYEAR=1900
DGENRE=Country
TTITLE0=绣荷包
TTITLE1=采槟榔
TTITLE2=山歌好比春江水
TTITLE3=知道不知道
TTITLE4=三十里铺
TTITLE5=道拉基
TTITLE6=草原夜色美
TTITLE7=月牙五更
TTITLE8=敖包相会 
TTITLE9=楼兰姑娘
TTITLE10=可爱的一朵玫瑰花
TTITLE11=阿里山的姑娘
TTITLE12=天堂
TTITLE13=太湖美
TTITLE14=走进西藏
EXTD=
EXTT0=
EXTT1=
EXTT2=
EXTT3=
EXTT4=
EXTT5=
EXTT6=
EXTT7=
EXTT8=
EXTT9=
EXTT10=
EXTT11=
EXTT12=
EXTT13=
EXTT14=
PLAYORDER=
